PathFileType	4	(X/Y/Z)	trial_0_0-299.trc
DataRate	CameraRate	NumFrames	NumMarkers	Units	OrigDataRate	OrigDataStartFrame	OrigNumFrames
60	60	8	21	m	60	37	299
Frame#	Time	RHip			RKnee			RAnkle			RBigToe			RSmallToe			RHeel			LHip			LKnee			LAnkle			LBigToe			LSmallToe			LHeel			Neck			Head			Nose			RShoulder			RElbow			RWrist			LShoulder			LElbow			LWrist		
		X1	Y1	Z1	X2	Y2	Z2	X3	Y3	Z3	X4	Y4	Z4	X5	Y5	Z5	X6	Y6	Z6	X7	Y7	Z7	X8	Y8	Z8	X9	Y9	Z9	X10	Y10	Z10	X11	Y11	Z11	X12	Y12	Z12	X13	Y13	Z13	X14	Y14	Z14	X15	Y15	Z15	X16	Y16	Z16	X17	Y17	Z17	X18	Y18	Z18	X19	Y19	Z19	X20	Y20	Z20	X21	Y21	Z21
38	0.6333333333333333	1.3764360199731178	1.1643539843662734	0.451539816924793	1.81656320904623	1.0948517393008104	0.43561424115276953	2.150094523308734	0.9302663182534285	0.35427850607714917	2.427452881488932	1.1239125337721008	0.33449383685672957	2.4115723395678663	1.0930473174320425	0.4325954837841085	2.1560508567837187	0.8831459847972611	0.3480167960341684	1.3755825813620146	1.220984538960414	0.17407286575199601	1.796522221097135	1.0841523229716303	0.1737961869816219	2.095815567662156	0.8749905906108285	0.17535789476241295	2.468627467135827	1.2014371824612111	0.16916053633086292	2.3151613396279345	1.0349996806199502	0.09954858276950888	2.0709644326671333	0.7236956398138145	0.18139679525135716	0.6570904196277731	1.1227350911169136	0.36324547381039307	0.32313050933062576	1.3433359506786005	0.41905403790351203	0.544111887386244	1.5653102610966012	0.4079379666059332	0.7496675840374648	1.1292469679050492	0.543318781681362	1.0881946563556575	1.1685588287601683	0.5846660013796389	1.392150562609866	1.4486471064470523	0.42276442396279	0.7200541961688757	1.1347209899102262	0.16651285057651224	1.0687552563124625	1.2131320077508874	0.0790986562894255	1.4488100578381444	1.6382469290793316	0.26555859707974183
39	0.65	1.381298105897871	1.179888187612976	0.44743843797824373	1.8165078578231744	1.0941480921968574	0.4356141276000595	2.1566301552325426	0.932587977213658	0.3536345138940283	2.45122042486337	1.1606673381660197	0.342959324710366	2.4124814678959905	1.0949989737448274	0.43253264360870824	2.1658877857591317	0.9000188600384919	0.34500862223192486	1.3827227908952384	1.2244650846373564	0.17420131568704406	1.7975300564294654	1.0886120664343633	0.1731194860389089	2.0933408613483304	0.878225451858168	0.17598265326584994	2.468135777895649	1.2000028364762163	0.16955386342898834	2.346299404870574	1.0773180373569626	0.10608767512447229	2.0713301810425997	0.7250947562146765	0.18125437122222893	0.65688874210612	1.1236335478189372	0.3632214667325102	0.32367954994700804	1.34064778075943	0.4190563081205209	0.5479457958705448	1.5581125389730868	0.4073791163760247	0.7495996707644215	1.12922868392481	0.5432860211078866	1.088132972788238	1.1671444212294269	0.5846257857502599	1.3944810769947538	1.4433313813295265	0.42215481031371554	0.7203006677869981	1.133733262494888	0.16642794642233677	1.0720940355842576	1.1989180373123747	0.08514217826350513	1.448608370526355	1.6339612870319504	0.2656536637766254
40	0.6666666666666666	1.381589320413136	1.181270264499966	0.44726393583273766	1.8232720353273473	1.0966755770311467	0.4362599655157957	2.1499313126754873	0.9301211683215989	0.3542266812748686	2.4527962966467656	1.1639168387118684	0.3428316639433841	2.4135614606593334	1.0970141246908571	0.4320952595262162	2.147039339986906	0.8697359967522225	0.33773613157061944	1.3826485824177495	1.2236033742373447	0.1743280026210153	1.7979521056376204	1.090957954769806	0.1728178869943679	2.067048962877009	0.843610661017175	0.16937363501915947	2.468091551741647	1.20048797005115	0.16957172766222048	2.3148091824173918	1.0335733712674355	0.0998136371387573	2.0624057592749057	0.7086420014012862	0.18613175664831905	0.6569054973312665	1.1227281412331058	0.3634269362463893	0.32306443044913713	1.3431390813026265	0.4191843933862122	0.5478481420820742	1.559011840114297	0.4071903474243479	0.7496129796818919	1.1293690654352015	0.5432970444129809	1.0882632191208368	1.168918324679769	0.5846356545260927	1.3923015526916644	1.4492442065421947	0.42258734069237797	0.7201253776362316	1.1352122073744315	0.16632747277214333	1.0716434272870545	1.2004641355795183	0.08519156752253032	1.4487888588728524	1.6347012514517398	0.2656346791151183
41	0.6833333333333333	1.381384732926573	1.180550526356781	0.4473997581199282	1.8224584566279307	1.0946233633709233	0.43683509979941526	2.1497848739182523	0.9301483304333644	0.35430323883456355	2.4654196398023975	1.1846036768320507	0.33982743209758676	2.4111817898333885	1.0924435856530494	0.4329306682725033	2.1465654333081057	0.8689467833012741	0.3379429675812505	1.3759221327949034	1.221701214184983	0.17394076489454696	1.7945660456378023	1.091802180155174	0.17379505943883852	2.066797088380274	0.8419179576997605	0.16953203947714138	2.468438620200703	1.2013930023993384	0.16976283213442306	2.345654205289486	1.0737169504719986	0.10637443617385628	2.06158710863628	0.7058653346238335	0.1864354177655022	0.6570797444446664	1.1224360546948484	0.36344514684859996	0.3229678202262087	1.3425942122776124	0.4195434517045106	0.5477694093538958	1.5603721076785892	0.40705573367878256	0.7496392963900134	1.1293809178231244	0.5432838616081542	1.0882320210080956	1.1683136023376999	0.5846365367398629	1.394781102995814	1.444762048462914	0.42163622682461943	0.720165508925533	1.1355335813173815	0.1663688950387889	1.0713735414637242	1.2005030009930107	0.08535308927803319	1.4484795778845958	1.6326570308554698	0.26582943310934465
42	0.7	1.3814152438721743	1.1836199388953725	0.44730862940307475	1.8164151369332049	1.094516667522816	0.43583794974142726	2.149688516385192	0.9297113596944182	0.35426732110073794	2.451756134998494	1.1618621028195806	0.34315580567664294	2.410734412968523	1.0915700759998384	0.4329563783686771	2.1468563433660104	0.870089518561131	0.33790438646200865	1.3759967204411891	1.223482511017313	0.17368403486193706	1.7879065485852357	1.0899676552639785	0.17439669618646794	2.0598008795504454	0.8301095905765685	0.1739592463247806	2.4567364790134594	1.181973583175893	0.17357811751662025	2.3470384371592474	1.0766966996267298	0.10589970121805135	2.0625156287843374	0.7056391328517718	0.18627752459306415	0.6570381945684017	1.1231795699959124	0.3633141774616377	0.3235006763217441	1.3405095058743601	0.4194374583034075	0.5477096786369583	1.562010791945479	0.40688928015981746	0.7495639648363122	1.1292316178275084	0.5434091291183215	1.088209825996597	1.168546320484675	0.584764044930311	1.392187369855596	1.4489174183097964	0.4224898026543577	0.7201113644021773	1.1345654695052543	0.1665679567808365	1.0718718492269281	1.2005195778950695	0.08514453063325124	1.4409788637520613	1.6299422251906492	0.2648190261116104
43	0.7166666666666667	1.3814921677416063	1.1800786103258023	0.4473553636588852	1.8325739307122801	1.1093155334727163	0.43191403627162883	2.1492133072971806	0.929100738076492	0.3545971181224558	2.450161708404213	1.1587313928535152	0.34343109765529395	2.4084348591172886	1.087205069474232	0.4337069257936028	2.1463897910454874	0.868721635882719	0.33821679448366476	1.3851691103554182	1.2198325299392894	0.17401624624827322	1.7960563558107514	1.0844135449735792	0.17389520660007712	2.076367672303148	0.8413147622628578	0.16960386718065917	2.4621710415742935	1.2017108206249523	0.16970108729372946	2.3472731585338193	1.0779430646575818	0.10557339173984483	2.0618305240293346	0.7056170351183975	0.18651182279390663	0.6570058157739608	1.1219592480897733	0.36356695626889646	0.32317406149602096	1.3418748690504219	0.419575106967829	0.5476824471025663	1.5604187379795853	0.4071510896765632	0.7496489536223452	1.1294097537314112	0.5433311016713552	1.088270539282677	1.1678850190775734	0.5845212949854793	1.3945025266440134	1.442934302526528	0.4220996638175102	0.7198736604506261	1.135042011278654	0.16678860097932097	1.0767326067116252	1.2120200609892189	0.07926462362998361	1.4410744536953337	1.6312607314881247	0.26484683833243433
44	0.7333333333333333	1.3815438399731828	1.1806949663893511	0.4472681755773069	1.825193478115825	1.090743173905559	0.43605686223087986	2.148496394380275	0.9275017392802075	0.35474145331461193	2.4487046870817135	1.1560453094711467	0.3442887507482925	2.4069986630420637	1.0846469946466026	0.4342845170115123	2.1457416107981233	0.8677843923027413	0.33842334670827745	1.3758611396651508	1.222218946056592	0.173897958774876	1.7966125965503017	1.0852194084508515	0.17360820690651363	2.0620129578252753	0.8247317289614344	0.17356893144166263	2.4586818235684342	1.1863946612354153	0.17259208347643573	2.3405330725960303	1.0751493393730183	0.104211388030899	2.0612160543298303	0.7048884217079243	0.18656020633361023	0.6567627977591566	1.1235465133662195	0.36348822444018564	0.32307485358034754	1.3398268093207224	0.4201206919809391	0.5474779844526567	1.560783159168697	0.407210838449659	0.7497097418625266	1.1292192394848235	0.5433402193766462	1.0881848806819878	1.1663612759371622	0.5846988473674357	1.3944816904914044	1.4434230577277656	0.42215757094523976	0.7244932687907742	1.1739253630886306	0.17235176977884964	1.06517141104772	1.1990979717247872	0.08489978117635326	1.4413027234857674	1.6346299437400376	0.2646278573188071
45	0.75	1.3810943900496697	1.1787083131996938	0.4476000485058129	1.812174961684998	1.087777690072427	0.43585502517910163	2.1491944403230128	0.9286789028547255	0.3545050848994987	2.4336712757670917	1.1461214328203329	0.33110552109612706	2.4077401407199246	1.0984021199923646	0.43222515283932006	2.1553977222075833	0.8823817089088966	0.34818612509393504	1.377904748762272	1.2151871289085519	0.17414133530041997	1.7906799465685157	1.085024143713832	0.17249270566131722	2.0618392186855647	0.8240206219168563	0.1737391176728929	2.4653635489064705	1.20683827386748	0.16830883448319325	2.340473654839556	1.0752771577151026	0.10595514013152572	2.064212526991639	0.7025343026976866	0.18611016660507884	0.6569393828347669	1.1237432012946833	0.3633357777613228	0.3174168153116554	1.3359146480749358	0.4204005485961435	0.5475234947046662	1.558718326637361	0.40742658254400554	0.7496313171828942	1.1298623458525487	0.543268981029399	1.0882244456244934	1.1683637960854787	0.5844021440186344	1.4010923722527289	1.4640199775188718	0.42045156408715617	0.7199623572044607	1.1347252344513912	0.16671330318319313	1.064829732291071	1.2004280363290971	0.08488276065977017	1.4414718894210297	1.6376829615905293	0.2643691755518903
